<svg width="32" height="18" viewBox="0 0 32 18" fill="none" xmlns="http://www.w3.org/2000/svg">
<path d="M0 4C0 2.93913 0.421427 1.92172 1.17157 1.17157C1.92172 0.421427 2.93913 0 4 0H28C29.0609 0 30.0783 0.421427 30.8284 1.17157C31.5786 1.92172 32 2.93913 32 4V14C32 15.0609 31.5786 16.0783 30.8284 16.8284C30.0783 17.5786 29.0609 18 28 18H4C2.93913 18 1.92172 17.5786 1.17157 16.8284C0.421427 16.0783 0 15.0609 0 14V4ZM26 4.5V5.5C26 5.776 26.224 6 26.5 6H27.5C27.6326 6 27.7598 5.94732 27.8536 5.85355C27.9473 5.75979 28 5.63261 28 5.5V4.5C28 4.36739 27.9473 4.24021 27.8536 4.14645C27.7598 4.05268 27.6326 4 27.5 4H26.5C26.3674 4 26.2402 4.05268 26.1464 4.14645C26.0527 4.24021 26 4.36739 26 4.5ZM4.5 8C4.36739 8 4.24021 8.05268 4.14645 8.14645C4.05268 8.24021 4 8.36739 4 8.5V9.5C4 9.776 4.224 10 4.5 10H5.5C5.63261 10 5.75979 9.94732 5.85355 9.85355C5.94732 9.75979 6 9.63261 6 9.5V8.5C6 8.36739 5.94732 8.24021 5.85355 8.14645C5.75979 8.05268 5.63261 8 5.5 8H4.5ZM8 8.5V9.5C8 9.776 8.224 10 8.5 10H9.5C9.63261 10 9.75979 9.94732 9.85355 9.85355C9.94732 9.75979 10 9.63261 10 9.5V8.5C10 8.36739 9.94732 8.24021 9.85355 8.14645C9.75979 8.05268 9.63261 8 9.5 8H8.5C8.36739 8 8.24021 8.05268 8.14645 8.14645C8.05268 8.24021 8 8.36739 8 8.5ZM12.5 8C12.3674 8 12.2402 8.05268 12.1464 8.14645C12.0527 8.24021 12 8.36739 12 8.5V9.5C12 9.776 12.224 10 12.5 10H13.5C13.6326 10 13.7598 9.94732 13.8536 9.85355C13.9473 9.75979 14 9.63261 14 9.5V8.5C14 8.36739 13.9473 8.24021 13.8536 8.14645C13.7598 8.05268 13.6326 8 13.5 8H12.5ZM16 8.5V9.5C16 9.776 16.224 10 16.5 10H17.5C17.6326 10 17.7598 9.94732 17.8536 9.85355C17.9473 9.75979 18 9.63261 18 9.5V8.5C18 8.36739 17.9473 8.24021 17.8536 8.14645C17.7598 8.05268 17.6326 8 17.5 8H16.5C16.3674 8 16.2402 8.05268 16.1464 8.14645C16.0527 8.24021 16 8.36739 16 8.5ZM26.5 8C26.3674 8 26.2402 8.05268 26.1464 8.14645C26.0527 8.24021 26 8.36739 26 8.5V9.5C26 9.776 26.224 10 26.5 10H27.5C27.6326 10 27.7598 9.94732 27.8536 9.85355C27.9473 9.75979 28 9.63261 28 9.5V8.5C28 8.36739 27.9473 8.24021 27.8536 8.14645C27.7598 8.05268 27.6326 8 27.5 8H26.5ZM26.5 12C26.3674 12 26.2402 12.0527 26.1464 12.1464C26.0527 12.2402 26 12.3674 26 12.5V13.5C26 13.776 26.224 14 26.5 14H27.5C27.6326 14 27.7598 13.9473 27.8536 13.8536C27.9473 13.7598 28 13.6326 28 13.5V12.5C28 12.3674 27.9473 12.2402 27.8536 12.1464C27.7598 12.0527 27.6326 12 27.5 12H26.5ZM20.5 8C20.3674 8 20.2402 8.05268 20.1464 8.14645C20.0527 8.24021 20 8.36739 20 8.5V9.5C20 9.776 20.224 10 20.5 10H23.5C23.6326 10 23.7598 9.94732 23.8536 9.85355C23.9473 9.75979 24 9.63261 24 9.5V8.5C24 8.36739 23.9473 8.24021 23.8536 8.14645C23.7598 8.05268 23.6326 8 23.5 8H20.5ZM22 12.5V13.5C22 13.776 22.224 14 22.5 14H23.5C23.6326 14 23.7598 13.9473 23.8536 13.8536C23.9473 13.7598 24 13.6326 24 13.5V12.5C24 12.3674 23.9473 12.2402 23.8536 12.1464C23.7598 12.0527 23.6326 12 23.5 12H22.5C22.3674 12 22.2402 12.0527 22.1464 12.1464C22.0527 12.2402 22 12.3674 22 12.5ZM22.5 4C22.3674 4 22.2402 4.05268 22.1464 4.14645C22.0527 4.24021 22 4.36739 22 4.5V5.5C22 5.776 22.224 6 22.5 6H23.5C23.6326 6 23.7598 5.94732 23.8536 5.85355C23.9473 5.75979 24 5.63261 24 5.5V4.5C24 4.36739 23.9473 4.24021 23.8536 4.14645C23.7598 4.05268 23.6326 4 23.5 4H22.5ZM18 4.5V5.5C18 5.776 18.224 6 18.5 6H19.5C19.6326 6 19.7598 5.94732 19.8536 5.85355C19.9473 5.75979 20 5.63261 20 5.5V4.5C20 4.36739 19.9473 4.24021 19.8536 4.14645C19.7598 4.05268 19.6326 4 19.5 4H18.5C18.3674 4 18.2402 4.05268 18.1464 4.14645C18.0527 4.24021 18 4.36739 18 4.5ZM14.5 4C14.3674 4 14.2402 4.05268 14.1464 4.14645C14.0527 4.24021 14 4.36739 14 4.5V5.5C14 5.776 14.224 6 14.5 6H15.5C15.6326 6 15.7598 5.94732 15.8536 5.85355C15.9473 5.75979 16 5.63261 16 5.5V4.5C16 4.36739 15.9473 4.24021 15.8536 4.14645C15.7598 4.05268 15.6326 4 15.5 4H14.5ZM10 4.5V5.5C10 5.776 10.224 6 10.5 6H11.5C11.6326 6 11.7598 5.94732 11.8536 5.85355C11.9473 5.75979 12 5.63261 12 5.5V4.5C12 4.36739 11.9473 4.24021 11.8536 4.14645C11.7598 4.05268 11.6326 4 11.5 4H10.5C10.3674 4 10.2402 4.05268 10.1464 4.14645C10.0527 4.24021 10 4.36739 10 4.5ZM4.5 4C4.36739 4 4.24021 4.05268 4.14645 4.14645C4.05268 4.24021 4 4.36739 4 4.5V5.5C4 5.776 4.224 6 4.5 6H7.5C7.63261 6 7.75979 5.94732 7.85355 5.85355C7.94732 5.75979 8 5.63261 8 5.5V4.5C8 4.36739 7.94732 4.24021 7.85355 4.14645C7.75979 4.05268 7.63261 4 7.5 4H4.5ZM4 12.5V13.5C4 13.776 4.224 14 4.5 14H5.5C5.63261 14 5.75979 13.9473 5.85355 13.8536C5.94732 13.7598 6 13.6326 6 13.5V12.5C6 12.3674 5.94732 12.2402 5.85355 12.1464C5.75979 12.0527 5.63261 12 5.5 12H4.5C4.36739 12 4.24021 12.0527 4.14645 12.1464C4.05268 12.2402 4 12.3674 4 12.5ZM8.5 12C8.36739 12 8.24021 12.0527 8.14645 12.1464C8.05268 12.2402 8 12.3674 8 12.5V13.5C8 13.776 8.224 14 8.5 14H19.5C19.6326 14 19.7598 13.9473 19.8536 13.8536C19.9473 13.7598 20 13.6326 20 13.5V12.5C20 12.3674 19.9473 12.2402 19.8536 12.1464C19.7598 12.0527 19.6326 12 19.5 12H8.5Z" fill="#8A8A8A"/>
</svg>
